<svg width="699" height="973" viewBox="0 0 699 973" fill="none" xmlns="http://www.w3.org/2000/svg">
<path d="M609.712 0.999992C600.113 49.5615 587.544 97.753 568.035 143.249C561.711 157.999 554.606 172.541 544.98 185.382C525.351 211.569 496.565 229.086 472.511 251.278C441.961 279.462 419.069 315.771 406.388 355.328C396.847 385.093 389.429 421.956 370.816 447.669C353.907 471.027 313.753 473.804 288.639 484.171C262.916 494.79 240.782 513.419 225.125 536.346C216.924 548.357 210.462 561.581 206.189 575.49C202.104 588.791 203.141 605.055 186.003 608.313C180.339 609.39 174.515 608.193 168.749 608.204C148.708 608.244 130.077 625.017 127.941 644.943M609.039 2.88819C600.366 51.0648 588.298 99.1393 568.921 144.409C562.477 159.49 555.027 174.142 545.398 187.378C533.762 203.331 518.885 216.276 503.61 228.905C493.183 237.527 482.569 246.001 472.67 255.182C453.115 273.321 436.363 294.446 423.081 317.322C415.315 330.699 408.739 344.674 403.495 359.034C399.795 369.105 396.329 379.966 392.581 390.908C387.294 406.282 381.441 421.816 373.656 435.73C370.866 440.729 367.828 445.519 364.476 449.998C350.61 468.504 323.006 474.965 299.869 482.499C293.657 484.509 287.766 486.595 282.543 489.015C261.022 498.909 242.278 514.506 227.952 533.486C225.484 536.753 223.147 540.122 220.947 543.582C213.101 555.921 206.948 569.444 202.764 583.603C200.287 591.989 199.658 601.466 195.493 608.357C192.93 612.6 189.026 615.832 182.558 617.264C176.907 618.514 171.086 617.587 165.306 617.804C145.23 618.542 126.387 635.385 123.818 655.507M608.365 4.77471C600.619 52.5678 589.051 100.524 569.804 145.569C563.24 160.984 555.446 175.744 545.813 189.371C534.207 205.712 519.355 219.102 504.023 232.118C493.555 241.007 482.861 249.723 472.822 259.085C452.989 277.575 435.716 298.807 421.689 321.53C413.488 334.815 406.406 348.612 400.596 362.739C396.475 372.655 392.572 383.31 388.391 394.028C382.48 409.093 376.004 424.288 367.736 438.101C364.782 443.061 361.602 447.835 358.128 452.331C343.725 470.932 316.284 478.23 293.476 486.665C287.358 488.902 281.577 491.235 276.443 493.865C255.38 504.656 237.189 520.898 223.463 540.444C221.1 543.805 218.868 547.27 216.766 550.822C209.273 563.49 203.43 577.311 199.337 591.72C196.913 600.258 196.22 609.842 192.021 616.906C189.433 621.259 185.514 624.596 179.112 626.218C173.472 627.646 167.656 626.986 161.862 627.408C141.753 628.842 122.694 645.759 119.695 666.072M607.692 6.66002C600.87 54.0696 589.806 101.91 570.69 146.727C564.004 162.473 555.867 177.342 546.232 191.364C534.657 208.093 519.83 221.927 504.441 235.33C493.933 244.487 483.161 253.444 472.978 262.986C452.868 281.828 435.072 303.165 420.301 325.732C411.664 338.928 404.114 352.564 397.698 366.44C393.181 376.212 388.813 386.649 384.204 397.142C377.667 411.899 370.571 426.753 361.819 440.465C358.702 445.382 355.377 450.145 351.787 454.656C336.845 473.352 309.592 481.546 287.087 490.822C281.068 493.302 275.387 495.857 270.346 498.704C249.724 510.355 232.102 527.283 218.979 547.392C216.719 550.851 214.59 554.408 212.589 558.052C205.452 571.048 199.918 585.167 195.916 599.826C193.545 608.517 192.79 618.206 188.555 625.443C185.943 629.908 182.011 633.352 175.668 635.161C170.041 636.768 164.229 636.373 158.42 637C138.275 639.132 119.002 656.117 115.572 676.628M607.019 8.54816C601.123 55.5728 590.56 103.297 571.578 147.888C564.772 163.968 556.318 178.962 546.651 193.359C535.139 210.499 520.305 224.753 504.861 238.546C494.313 247.969 483.461 257.169 473.137 266.891C452.75 286.086 434.434 307.528 418.917 329.941C409.844 343.046 401.797 356.513 394.806 370.147C389.874 379.769 385.062 389.993 380.022 400.265C372.861 414.713 365.142 429.228 355.906 442.838C352.625 447.715 349.157 452.464 345.448 456.99C329.968 475.78 302.888 484.827 280.7 494.987C274.777 497.699 269.2 500.485 264.253 503.551C244.074 516.058 227.019 533.673 214.497 554.348C212.339 557.902 210.313 561.554 208.413 565.289C201.631 578.612 196.406 593.031 192.494 607.939C190.176 616.782 189.357 626.575 185.087 633.988C182.452 638.564 178.505 642.117 172.226 644.112C166.61 645.898 160.803 645.768 154.981 646.6C134.8 649.43 115.314 666.487 111.453 687.189M606.346 10.4333C601.378 57.0745 591.316 104.682 572.462 149.047C565.535 165.459 556.745 180.566 547.067 195.351C535.592 212.883 520.777 227.577 505.276 241.757C494.688 251.45 483.757 260.889 473.29 270.791C452.627 290.338 433.788 311.884 417.527 334.145C408.019 347.16 399.473 360.455 391.909 373.848C386.561 383.317 381.33 393.346 375.834 403.381C368.081 417.539 359.676 431.671 349.988 445.203C346.532 450.031 342.932 454.773 339.102 459.316C323.084 478.202 296.177 488.097 274.307 499.147C268.481 502.09 263.007 505.11 258.153 508.394C238.415 521.752 221.93 540.058 210.009 561.3C207.956 564.95 206.032 568.695 204.23 572.524C197.805 586.177 192.888 600.895 189.066 616.052C186.801 625.048 185.919 634.947 181.613 642.533C178.955 647.22 174.993 650.881 168.778 653.062C163.173 655.028 157.373 655.163 151.535 656.199C131.321 659.726 111.621 676.855 107.327 697.753M605.673 12.3213C601.631 58.5776 592.071 106.068 573.348 150.207C566.302 166.951 557.171 182.169 547.486 197.346C536.048 215.27 521.25 230.404 505.694 244.972C495.064 254.931 484.055 264.614 473.448 274.695C452.507 294.594 433.148 316.246 416.14 338.351C406.196 351.275 397.15 364.401 389.014 377.552C383.25 386.87 377.578 396.69 371.649 406.498C363.275 420.353 354.24 434.136 344.072 447.571C340.452 452.356 336.711 457.088 332.76 461.644C316.205 480.624 289.472 491.368 267.917 503.307C262.188 506.481 256.818 509.73 252.057 513.238C232.762 527.446 216.844 546.445 205.523 568.253C203.573 571.998 201.753 575.837 200.051 579.757C193.981 593.737 189.373 608.754 185.641 624.162C183.429 633.31 182.484 643.315 178.142 651.074C175.462 655.871 171.483 659.647 165.332 662.011C159.737 664.16 153.942 664.555 148.092 665.795C127.842 670.019 107.926 687.22 103.205 708.311M604.999 14.2079C601.881 60.0806 592.823 107.453 574.231 151.367C567.064 168.443 557.593 183.771 547.9 199.34C536.498 217.654 521.72 233.23 506.107 248.185C495.438 258.413 484.35 268.336 473.6 278.597C452.382 298.848 432.499 320.606 414.748 342.556C404.371 355.39 394.823 368.345 386.114 381.256C379.931 390.424 373.82 400.035 367.459 409.618C358.462 423.167 348.8 436.603 338.152 449.94C334.368 454.681 330.483 459.402 326.413 463.974C309.318 483.05 282.761 494.639 261.523 507.468C255.89 510.871 250.624 514.353 245.955 518.082C227.102 533.135 211.752 552.834 201.034 575.207C199.186 579.048 197.471 582.983 195.868 586.992C190.153 601.3 185.854 616.616 182.211 632.274C180.052 641.574 179.044 651.686 174.667 659.617C171.963 664.524 167.97 668.415 161.881 670.959C156.296 673.292 150.508 673.948 144.644 675.392C124.359 680.311 104.231 697.585 99.0754 718.871M604.326 16.0931C602.136 61.5823 593.579 108.837 575.119 152.526C567.831 169.936 558.019 185.372 548.32 201.334C536.952 220.037 522.195 236.056 506.528 251.399C495.819 261.893 484.652 272.06 473.759 282.502C452.264 303.106 431.859 324.967 413.364 346.765C402.55 359.509 392.499 372.292 383.221 384.963C376.619 393.979 370.071 403.382 363.278 412.738C353.659 425.984 343.37 439.071 332.24 452.31C328.289 457.01 324.264 461.717 320.074 466.305C302.442 485.475 276.058 497.907 255.136 511.631C249.598 515.263 244.437 518.975 239.861 522.925C221.447 538.822 206.669 559.221 196.554 582.159C194.811 586.096 193.198 590.124 191.693 594.227C186.334 608.864 182.343 624.479 178.792 640.387C176.686 649.839 175.614 660.055 171.202 668.162C168.474 673.18 164.466 677.188 158.441 679.909C152.867 682.427 147.084 683.341 141.207 684.992C120.887 690.609 100.545 707.955 94.9598 729.433M603.653 17.9812C602.389 63.0854 594.334 110.224 576.003 153.688C568.595 171.429 558.443 186.976 548.735 203.33C537.401 222.423 522.665 238.885 506.942 254.615C496.192 265.378 484.944 275.785 473.912 286.405C452.141 307.361 431.214 329.329 411.973 350.97C400.725 363.623 390.171 376.236 380.324 388.667C373.302 397.532 366.315 406.727 359.089 415.856C348.847 428.797 337.933 441.537 326.32 454.679C322.206 459.336 318.037 464.032 313.727 468.635C295.556 487.901 269.345 501.175 248.742 515.795C243.301 519.655 238.242 523.6 233.76 527.772C215.785 544.507 201.579 565.611 192.063 589.115C190.422 593.147 188.913 597.269 187.51 601.464C182.506 616.428 178.826 632.343 175.362 648.501C173.311 658.105 172.174 668.428 167.727 676.708C164.976 681.838 160.953 685.962 154.991 688.862C149.426 691.567 143.651 692.739 137.758 694.593C117.403 700.907 96.8447 718.324 90.829 739.997M602.98 19.8666C602.642 64.5859 595.089 111.609 576.889 154.846C569.361 172.92 558.868 188.575 549.154 205.323C537.853 224.806 523.141 241.708 507.358 257.829C496.568 268.858 485.242 279.507 474.067 290.309C452.019 311.617 430.569 333.69 410.584 355.178C398.899 367.741 387.841 380.18 377.428 392.373C369.985 401.085 362.561 410.074 354.903 418.978C344.036 431.614 332.499 444.007 320.406 457.051C316.127 461.665 311.815 466.35 307.386 470.967C288.678 490.327 262.64 504.44 242.354 519.959C237.009 524.049 232.053 528.223 227.664 532.619C210.126 550.19 196.493 572.001 187.579 596.071C186.042 600.201 184.635 604.416 183.333 608.702C178.684 623.994 175.312 640.209 171.94 656.614C169.941 666.37 168.742 676.799 164.259 685.253C161.485 690.494 157.448 694.737 151.549 697.812C145.995 700.706 140.228 702.145 134.318 704.193C113.943 711.248 93.1575 728.693 86.7094 750.561M602.306 21.7531C602.893 66.0903 595.841 112.995 577.774 156.004C570.124 174.411 559.289 190.176 549.57 207.315C538.302 227.185 523.612 244.533 507.774 261.04C496.943 272.338 485.539 283.228 474.22 294.209C451.895 315.869 429.922 338.048 409.194 359.381C397.075 371.854 385.509 384.122 374.53 396.074C366.667 404.633 358.804 413.415 350.716 422.092C339.224 434.422 327.065 446.471 314.487 459.416C310.045 463.989 305.591 468.659 301.04 473.294C281.794 492.749 255.926 507.7 235.96 524.118C230.71 528.434 225.857 532.839 221.563 537.461C204.461 555.865 191.403 578.388 183.089 603.023C181.656 607.247 180.355 611.557 179.15 615.935C174.856 631.555 171.793 648.069 168.512 664.724C166.566 674.633 165.302 685.167 160.786 693.794C157.989 699.145 153.938 703.511 148.099 706.759C142.557 709.843 136.796 711.536 130.87 713.787C110.462 721.538 89.4603 739.057 82.5827 761.117M601.633 23.6411C603.147 67.5934 596.597 114.383 578.66 157.167C570.891 175.906 559.713 191.779 549.989 209.313C538.753 229.571 524.085 247.362 508.191 264.258C497.321 275.822 485.838 286.954 474.378 298.116C451.776 320.128 429.282 342.413 407.809 363.592C395.253 375.975 383.182 388.069 371.635 399.783C363.351 408.19 355.05 416.765 346.531 425.217C334.413 437.241 321.632 448.944 308.572 461.789C303.965 466.319 299.367 470.978 294.7 475.628C274.916 495.178 249.218 510.965 229.574 528.285C224.42 532.828 219.669 537.463 215.471 542.31C198.802 561.545 186.321 584.779 178.61 609.981C177.28 614.302 176.081 618.705 174.976 623.176C171.039 639.125 168.283 655.936 165.092 672.843C163.2 682.904 161.874 693.543 157.32 702.345C154.5 707.805 150.434 712.295 144.659 715.716C139.129 718.991 133.372 720.938 127.432 723.394C106.991 731.843 85.7729 749.431 78.463 771.687M600.96 25.5264C603.399 69.0938 597.266 115.73 579.546 158.325C571.618 177.38 560.133 193.377 550.406 211.304C539.201 231.95 524.558 250.186 508.609 267.469C497.699 279.302 486.135 290.676 474.534 302.016C451.655 324.381 428.639 346.769 406.42 367.794C393.43 380.087 380.849 392.005 368.739 403.483C360.032 411.735 351.292 420.103 342.346 428.331C329.602 440.05 316.201 451.407 302.656 464.154C297.887 468.642 293.144 473.289 288.357 477.955C268.034 497.6 242.506 514.22 223.183 532.443C218.125 537.213 213.476 542.079 209.372 547.151C193.135 567.216 181.233 591.163 174.123 616.929C172.895 621.346 171.8 625.843 170.796 630.406C167.214 646.682 164.767 663.793 161.666 680.949C159.826 691.162 158.436 701.908 153.848 710.882C151.004 716.454 146.927 721.066 141.212 724.659C135.695 728.127 129.943 730.326 123.99 732.985C103.516 742.132 82.0814 759.792 74.3419 782.241M600.286 27.4131C603.653 70.597 598.019 117.115 580.429 159.485C572.38 178.872 560.553 194.977 550.821 213.297C539.646 234.331 525.028 253.012 509.023 270.682C498.071 282.782 486.431 294.398 474.687 305.92C451.529 328.636 427.994 351.131 405.029 372.002C391.602 384.204 378.513 395.948 365.84 407.189C356.708 415.287 347.534 423.448 338.156 431.451C324.785 442.864 310.766 453.878 296.735 466.525C291.802 470.972 286.918 475.605 282.01 480.285C261.149 500.025 235.789 517.48 216.788 536.606C211.824 541.603 207.279 546.699 203.269 551.996C187.459 572.891 176.141 597.552 169.632 623.885C168.508 628.396 167.516 632.987 166.612 637.642C163.386 654.247 161.248 671.658 158.236 689.063C156.448 699.427 154.996 710.279 150.373 719.428C147.506 725.111 143.416 729.849 137.763 733.611C132.258 737.274 126.511 739.72 120.542 742.585C100.034 752.429 78.3858 770.16 70.2126 792.803M599.615 29.2996C603.906 72.1 598.777 118.501 581.316 160.644C573.146 180.363 560.975 196.576 551.241 215.291C540.096 236.712 525.504 255.838 509.442 273.895C498.45 286.264 486.731 298.12 474.845 309.82C451.411 332.888 427.352 355.489 403.643 376.207C389.782 388.319 376.183 399.887 362.947 410.891C353.393 418.835 343.78 426.789 333.972 434.568C319.974 445.671 305.336 456.346 290.82 468.891C285.725 473.296 280.697 477.917 275.669 482.611C254.27 502.447 229.077 520.733 210.4 540.764C205.529 545.987 201.087 551.314 197.175 556.839C181.792 578.559 171.056 603.939 165.149 630.837C164.129 635.445 163.241 640.131 162.436 644.876C159.565 661.809 157.737 679.518 154.815 697.175C153.08 707.691 151.566 718.648 146.907 727.971C144.016 733.766 139.915 738.63 134.321 742.561C128.83 746.418 123.085 749.115 117.102 752.184C96.5605 762.725 74.6955 780.528 66.0942 803.366M598.941 31.1864C604.157 73.6017 599.614 119.922 582.2 161.804C573.948 181.874 561.393 198.177 551.655 217.285C540.541 239.094 525.975 258.663 509.856 277.109C498.824 289.743 487.025 301.841 474.997 313.724C451.286 337.144 426.705 359.849 402.252 380.412C387.955 392.434 373.847 403.825 360.046 414.595C350.067 422.382 340.019 430.132 329.783 437.687C315.158 448.484 299.901 458.815 284.901 471.26C279.642 475.624 274.469 480.232 269.322 484.942C247.386 504.871 222.358 523.989 204.006 544.928C199.231 550.378 194.889 555.935 191.074 561.684C176.117 584.23 165.966 610.328 160.66 637.791C159.744 642.494 158.958 647.275 158.252 652.113C155.737 669.373 154.216 687.382 151.385 705.288C149.703 715.956 148.125 727.02 143.432 736.515C140.518 742.418 136.406 747.411 130.87 751.509C125.394 755.561 119.645 758.495 113.654 761.782C93.0554 772.978 70.9999 790.894 61.9649 813.925M598.266 33.0731C604.411 75.105 600.369 121.308 583.086 162.964C574.715 183.365 561.816 199.776 552.074 219.28C540.988 241.475 526.448 261.489 510.275 280.325C499.204 293.228 487.324 305.568 475.154 317.629C451.167 341.401 426.064 364.213 400.865 384.621C386.133 396.553 371.514 407.766 357.152 418.302C346.749 425.933 336.263 433.475 325.598 440.808C310.345 451.296 294.47 461.288 278.985 473.631C273.564 477.952 268.248 482.547 262.98 487.273C240.505 507.298 215.641 527.245 197.617 549.09C192.935 554.766 188.696 560.551 184.978 566.528C170.443 589.9 160.881 616.715 156.176 644.745C155.363 649.545 154.681 654.418 154.074 659.347C151.913 676.935 150.703 695.242 147.961 713.399C146.332 724.221 144.69 735.389 139.963 745.058C137.025 751.072 132.904 756.194 127.427 760.458C121.967 764.707 116.217 767.887 110.212 771.379C89.5792 783.272 67.3085 801.261 57.8425 824.487M597.595 34.9599C604.665 76.6068 601.125 122.693 583.973 164.123C575.482 184.857 562.237 201.374 552.493 221.272C541.436 243.854 526.923 264.314 510.694 283.536C499.58 296.707 487.623 309.288 475.313 321.53C451.047 345.655 425.422 368.57 399.481 388.825C384.312 400.666 369.185 411.7 354.26 422.004C343.432 429.478 332.51 436.815 321.416 443.923C305.534 454.101 289.044 463.754 273.074 475.997C267.488 480.278 262.029 484.859 256.641 489.6C233.627 509.721 208.926 530.498 191.23 553.25C186.641 559.149 182.503 565.167 178.884 571.371C164.767 595.566 155.798 623.101 151.693 651.695C150.983 656.59 150.405 661.558 149.898 666.579C148.093 684.494 147.192 703.102 144.54 721.506C142.964 732.479 141.259 743.754 136.496 753.596C133.536 759.721 129.408 764.971 123.984 769.403C118.543 773.85 112.792 777.277 106.773 780.973C86.103 793.562 63.6198 811.622 53.7243 835.043M596.921 36.8464C604.917 78.1084 601.878 124.078 584.856 165.283C576.244 186.349 562.652 202.975 552.908 223.269C541.879 246.237 527.393 267.143 511.107 286.752C499.954 300.191 487.918 313.013 475.464 325.434C450.922 349.911 424.775 372.934 398.086 393.032C382.484 404.784 366.844 415.638 351.358 425.709C340.106 433.025 328.746 440.157 317.225 447.044C300.715 456.913 283.608 466.228 267.152 478.368C261.404 482.607 255.8 487.175 250.294 491.931C226.743 512.146 202.202 533.753 184.836 557.414C180.34 563.54 176.304 569.786 172.782 576.217C159.083 601.237 150.705 629.492 147.204 658.652C146.599 663.643 146.122 668.706 145.715 673.817C144.267 692.062 143.673 710.968 141.112 729.621C139.589 740.747 137.822 752.127 133.024 762.144C130.04 768.381 125.904 773.761 120.538 778.357C115.112 783.004 109.361 786.674 103.329 790.577C82.6252 803.863 59.9267 821.996 49.5989 845.61M596.248 38.7315C605.17 79.6114 602.632 125.464 585.742 166.441C577.01 187.84 563.071 204.571 553.325 225.259C542.324 248.615 527.865 269.966 511.524 289.962C500.329 303.668 488.216 316.732 475.621 329.334C450.801 354.163 424.132 377.29 396.701 397.234C380.662 408.895 364.513 419.57 348.465 429.409C336.788 436.567 324.992 443.492 313.041 450.158C295.902 459.717 278.179 468.694 261.237 480.732C255.326 484.933 249.578 489.484 243.951 494.257C219.861 514.568 195.48 537.004 178.445 561.572C174.042 567.922 170.107 574.4 166.686 581.058C153.404 606.904 145.62 635.876 142.718 665.602C142.215 670.688 141.844 675.844 141.536 681.049C140.441 699.623 140.158 718.826 137.687 737.731C136.218 749.008 134.384 760.495 129.553 770.686C126.546 777.034 122.404 782.545 117.091 787.303C111.685 792.149 105.932 796.065 99.8837 800.171C79.1446 814.155 56.2338 832.359 45.4751 856.167M595.575 40.6196C605.423 81.1146 603.386 126.85 586.628 167.604C577.774 189.335 563.489 206.172 553.744 227.257C542.77 250.998 528.34 272.796 511.943 293.181C500.71 307.154 488.515 320.461 475.778 333.241C450.682 358.422 423.489 381.655 395.314 401.446C378.841 413.017 362.179 423.511 345.568 433.12C333.468 440.12 321.235 446.839 308.855 453.283C291.089 462.529 272.748 471.172 255.32 483.107C249.246 487.266 243.354 491.805 237.608 496.592C212.98 516.997 188.757 540.262 172.054 565.739C167.743 572.316 163.908 579.025 160.587 585.908C147.718 612.577 140.532 642.269 138.231 672.561C137.832 677.745 137.564 682.993 137.356 688.29C136.617 707.192 136.642 726.695 134.26 745.848C132.845 757.278 130.949 768.87 126.081 779.235C123.051 785.691 118.903 791.334 113.644 796.259C108.258 801.303 102.499 805.464 96.44 809.775C75.6656 824.457 52.5409 842.733 41.3498 866.733M594.901 42.5061C605.675 82.6162 604.141 128.237 587.513 168.763C578.54 190.826 563.907 207.77 554.16 229.25C543.211 253.377 528.812 275.62 512.358 296.393C501.083 310.633 488.81 324.181 475.932 337.143C450.558 362.677 422.846 386.014 393.924 405.65C377.014 417.13 359.842 427.442 342.671 436.821C330.145 443.661 317.475 450.177 304.668 456.4C286.273 465.335 267.318 473.643 249.403 485.473C243.167 489.593 237.13 494.118 231.265 498.921C206.098 519.421 182.032 543.513 165.664 569.899C161.445 576.701 157.711 583.639 154.489 590.75C142.033 618.244 135.445 648.655 133.747 679.512C133.452 684.79 133.285 690.135 133.179 695.523C132.795 714.753 133.128 734.554 130.838 753.959C129.475 765.54 127.515 777.239 122.613 787.777C119.559 794.345 115.408 800.118 110.201 805.207C104.836 810.452 99.074 814.857 92.9989 819.371C72.1906 834.749 48.8492 853.097 37.2301 877.292M594.228 44.3915C605.929 84.1181 604.895 129.62 588.397 169.921C579.304 192.317 564.281 209.348 554.576 231.242C543.608 255.734 529.283 278.443 512.773 299.605C501.459 314.114 489.107 327.902 476.086 341.043C450.436 366.928 422.201 390.37 392.534 409.853C375.19 421.244 357.507 431.373 339.773 440.522C326.823 447.203 313.716 453.515 300.481 459.514C281.459 468.138 261.91 476.148 243.484 487.838C237.092 491.928 230.906 496.427 224.92 501.246C199.217 521.841 175.306 546.763 159.273 574.058C155.145 581.085 151.514 588.254 148.391 595.592C136.347 623.909 130.356 655.04 129.259 686.462C129.066 691.836 129.006 697.274 128.996 702.755C128.968 722.313 129.612 742.414 127.41 762.069C126.1 773.803 124.077 785.606 119.139 796.318C116.063 802.998 111.907 808.902 106.753 814.154C101.409 819.6 95.6433 824.249 89.5539 828.968C68.7102 845.044 45.1564 863.462 33.1049 887.853M593.555 46.2797C606.181 85.6227 605.65 131.007 589.283 171.082C580.07 193.811 564.703 210.95 554.995 233.237C544.057 258.117 529.757 281.271 513.191 302.819C501.835 317.595 489.406 331.625 476.243 344.948C450.316 371.186 421.56 394.734 391.148 414.061C373.367 425.362 355.176 435.308 336.88 444.228C323.504 450.749 309.951 456.831 296.296 462.634C276.633 470.911 256.477 478.619 237.57 490.207C231.016 494.256 224.684 498.742 218.578 503.576C192.336 524.267 168.582 550.017 152.883 578.221C148.847 585.472 145.315 592.872 142.296 600.437C130.662 629.579 125.272 661.429 124.777 693.418C124.687 698.888 124.73 704.42 124.82 709.992C125.147 729.878 126.099 750.279 123.987 770.182C122.731 782.068 120.645 793.976 115.671 804.863C112.571 811.654 108.412 817.689 103.308 823.105C97.9872 828.751 92.214 833.643 86.1116 838.567C65.234 855.34 41.4636 873.831 28.9811 898.415M592.882 48.1648C606.434 87.1229 606.405 132.391 590.171 172.241C580.836 195.301 565.126 212.55 555.414 235.229C544.507 260.498 530.231 284.095 513.61 306.032C502.216 321.076 489.705 335.349 476.4 348.85C450.195 375.441 420.917 399.093 389.761 418.267C371.546 429.478 352.842 439.24 333.984 447.933C320.184 454.293 306.196 460.173 292.11 465.756C271.82 473.723 251.045 481.091 231.653 492.579C224.934 496.587 218.46 501.06 212.235 505.908C185.455 526.693 161.853 553.272 146.492 582.384C142.547 589.862 139.115 597.492 136.197 605.284C124.971 635.251 120.184 667.819 120.289 700.373C120.303 705.938 120.447 711.565 120.639 717.229C121.321 737.442 122.582 758.143 120.562 778.295C119.359 790.333 117.21 802.348 112.201 813.408C109.077 820.309 104.915 826.477 99.8634 832.055C94.5668 837.904 88.7859 843.038 82.6678 848.166C61.7548 865.636 37.7719 884.197 24.8586 908.976M592.208 50.0513C606.687 88.6259 607.158 133.776 591.054 173.401C581.599 196.795 565.543 214.15 555.829 237.225C544.953 262.881 530.702 286.923 514.025 309.247C502.591 324.559 490.001 339.072 476.555 352.753C450.074 379.696 420.272 403.453 388.372 422.472C369.721 433.592 350.509 443.172 331.087 451.635C316.863 457.836 302.441 463.514 287.925 468.871C267.009 476.529 245.612 483.559 225.739 494.945C218.857 498.911 212.238 503.372 205.893 508.236C178.575 529.116 155.127 556.525 140.104 586.543C136.249 594.247 132.918 602.107 130.101 610.125C119.281 640.917 115.098 674.203 115.805 707.324C115.922 712.986 116.171 718.705 116.462 724.461C117.501 745.004 119.069 766.001 117.14 786.405C115.989 798.596 113.776 810.715 108.733 821.949C105.586 828.96 101.424 835.263 96.421 841.003C91.1478 847.052 85.3592 852.429 79.2282 857.763C58.2798 875.931 34.0831 894.564 20.7374 919.536M591.535 51.9394C606.94 90.129 607.914 135.164 591.94 174.561C582.363 198.287 565.964 215.751 556.247 239.218C545.4 265.262 531.175 289.749 514.441 312.461C502.965 328.04 490.298 342.796 476.709 356.658C449.949 383.952 419.628 407.817 386.983 426.681C367.897 437.711 348.16 447.074 328.191 455.344C313.534 461.359 298.686 466.86 283.737 471.994C262.196 479.344 240.178 486.031 219.82 497.319C212.775 501.244 206.013 505.689 199.549 510.569C171.693 531.544 148.341 559.756 133.712 590.71C129.934 598.632 126.718 606.73 124.002 614.974C113.589 646.594 110.009 680.597 111.318 714.281C111.538 720.038 111.891 725.853 112.281 731.701C113.675 752.571 115.552 773.868 113.712 794.521C112.613 806.863 110.338 819.09 105.259 830.497C102.089 837.618 97.926 844.053 92.9718 849.957C87.7261 856.209 81.927 861.828 75.7817 867.367C54.7994 886.232 30.3874 904.935 16.6122 930.102M590.862 53.8247C607.192 91.6309 608.667 136.549 592.824 175.72C583.13 199.778 566.385 217.352 556.664 241.212C545.848 267.644 531.647 292.574 514.857 315.674C503.342 331.522 490.596 346.518 476.863 360.56C449.827 388.206 418.982 412.176 385.593 430.888C366.072 441.826 345.829 451.012 325.294 459.048C310.214 464.906 294.929 470.201 279.552 475.113C257.386 482.154 234.745 488.502 213.903 499.688C206.694 503.57 199.789 508.004 193.206 512.898C164.811 533.969 141.622 563.015 127.321 594.871C123.637 603.021 120.502 611.343 117.905 619.817C107.832 652.243 104.923 686.983 106.833 721.234C107.158 727.087 107.612 732.995 108.101 738.934C109.85 760.132 112.038 781.728 110.287 802.631C109.241 815.125 106.904 827.458 101.788 839.039C98.5953 846.272 94.4324 852.838 89.5256 858.904C84.306 865.356 78.4964 871.217 72.3381 876.96C51.3205 896.522 26.6947 915.298 12.4885 940.659M590.188 55.7116C607.445 93.1342 609.42 137.934 593.709 176.879C583.893 201.269 566.805 218.951 557.079 243.206C546.294 270.027 532.118 295.399 515.271 318.888C503.715 335.001 490.888 350.24 477.017 364.462C449.704 392.461 418.337 416.535 384.203 435.092C364.247 445.941 343.497 454.948 322.396 462.749C306.896 468.452 291.172 473.542 275.363 478.229C252.572 484.962 229.311 490.969 207.985 502.053C200.611 505.895 193.563 510.315 186.86 515.225C157.928 536.389 134.901 566.274 120.928 599.03C117.336 607.406 114.302 615.96 111.804 624.66C102.156 657.92 99.8318 693.367 102.343 728.185C102.771 734.134 103.33 740.135 103.918 746.166C106.023 767.692 108.519 789.588 106.859 810.741C105.866 823.388 103.464 835.826 98.315 847.581C95.0985 854.925 90.9373 861.622 86.0778 867.851C80.8857 874.506 75.0657 880.61 68.8931 886.557C47.8401 906.815 23.0018 925.664 8.36341 951.218M589.516 57.5981C607.699 94.6358 610.177 139.32 594.596 178.04C584.66 202.764 567.227 220.553 557.498 245.201C546.743 272.409 532.593 298.226 515.69 322.103C504.095 338.486 491.189 353.965 477.174 368.367C449.584 396.717 417.697 420.897 382.816 439.301C362.424 450.058 341.167 458.889 319.5 466.457C303.577 472.003 287.416 476.887 271.176 481.351C247.76 487.775 223.875 493.442 202.066 504.426C194.53 508.226 187.34 512.634 180.515 517.558C151.045 538.818 128.182 569.539 114.536 603.197C111.039 611.801 108.108 620.586 105.705 629.509C96.4804 663.605 94.7435 699.76 97.8561 735.144C98.3859 741.189 99.0491 747.285 99.7384 753.407C102.198 775.261 105.002 797.456 103.432 818.858C102.492 831.657 100.028 844.201 94.8426 856.129C91.6029 863.585 87.4558 870.423 82.6298 876.807C77.4776 883.674 71.6333 890.009 65.4478 896.162C44.3594 917.118 19.3073 936.039 4.23791 961.787M588.842 59.4848C607.951 96.1375 610.93 140.705 595.481 179.199C585.423 204.255 567.648 222.151 557.915 247.195C547.19 274.791 533.066 301.053 516.107 325.317C481.564 374.741 435.15 415.986 381.427 443.506C345.29 462.017 306.34 474.458 266.991 484.467C242.949 490.583 218.443 495.909 196.151 506.791C155.169 526.797 124.549 564.801 108.147 607.354C91.7447 649.907 88.6842 696.729 93.3723 742.093C97.6246 783.26 107.765 826.667 91.3748 864.668C72.6293 908.129 24.3928 931.71 0.117041 972.341M698.746 301.87C664.066 265.891 616.453 242.647 566.755 237.436C552.616 235.954 537.781 235.993 524.867 241.938C487.555 259.119 479.41 309.72 468.32 344.803C454.936 387.14 442.568 429.879 425.753 471.03C416.314 494.133 402.975 518.976 379.134 526.357C354.991 533.829 329.978 520.566 306.88 510.309C279.967 498.355 250.848 489.978 221.426 491.237C192.004 492.497 162.192 504.336 143.563 527.144C128.975 545.006 122.229 567.943 117.708 590.558C105.834 649.98 107.068 711.984 121.299 770.887M698.126 299.45C667.476 267.651 626.1 247.711 580.47 240.578C576.232 239.915 571.981 239.346 567.713 238.923C553.689 237.538 539.011 237.607 526.206 243.393C489.162 260.115 480.353 309.141 468.861 343.751C458.674 374.436 449.209 405.566 437.985 436.355C434.105 447.05 430.035 457.679 425.683 468.209C416.241 491.048 403.051 515.588 379.703 523.233C356.061 530.973 331.581 518.65 308.946 509.228C282.57 498.252 254.048 490.726 225.189 492.499C215.141 493.116 205.042 494.972 195.363 498.082C177.248 503.897 160.597 514.098 148.514 528.775C133.999 546.404 127.031 568.899 122.183 591.006C112.357 635.752 109.947 681.675 115.091 726.792C116.625 740.255 118.832 753.643 121.72 766.905M697.506 297.034C667.878 266.294 627.59 248.643 581.309 241.964C577.109 241.358 572.899 240.809 568.673 240.414C554.763 239.129 540.243 239.226 527.544 244.853C490.764 261.116 481.297 308.564 469.404 342.704C458.957 372.694 449.381 403.355 437.96 433.92C434.052 444.48 429.967 454.983 425.614 465.391C416.172 487.969 403.128 512.205 380.274 520.113C357.131 528.12 333.185 516.737 311.016 508.151C285.179 498.151 257.249 491.478 228.956 493.765C219.104 494.563 209.197 496.554 199.691 499.753C181.902 505.729 165.493 515.925 153.47 530.408C139.03 547.807 131.84 569.856 126.663 591.457C116.154 635.181 112.706 679.731 116.64 723.731C117.813 736.861 119.642 749.938 122.147 762.924M696.886 294.615C668.279 264.936 629.087 249.564 582.149 243.346C577.984 242.794 573.817 242.266 569.634 241.901C555.84 240.713 541.476 240.844 528.886 246.309C492.373 262.113 482.251 307.98 469.949 341.652C459.247 370.945 449.486 401.111 437.94 431.481C433.98 441.899 429.903 452.283 425.548 462.572C416.104 484.886 403.208 508.819 380.849 516.99C358.206 525.262 334.795 514.821 313.088 507.071C287.789 498.048 260.455 492.227 232.726 495.026C223.069 496.005 213.354 498.131 204.02 501.417C186.556 507.554 170.391 517.743 158.429 532.037C144.063 549.205 136.651 570.81 131.144 591.903C119.952 634.61 115.467 677.784 118.191 720.668C119.004 733.464 120.456 746.228 122.579 758.941M696.266 292.198C668.681 263.58 630.588 250.479 582.987 244.733C578.859 244.236 574.733 243.729 570.592 243.393C556.912 242.305 542.706 242.464 530.223 247.768C493.978 263.113 483.207 307.4 470.49 340.606C459.539 369.201 449.635 398.892 437.914 429.048C433.919 439.328 429.834 449.587 425.478 459.756C416.033 481.808 403.286 505.437 381.418 513.871C359.276 522.412 336.399 512.91 315.154 505.996C290.393 497.951 263.654 492.979 236.488 496.293C227.027 497.451 217.505 499.712 208.342 503.088C191.206 509.387 175.283 519.569 163.378 533.672C149.084 550.609 141.452 571.77 135.616 592.354C123.742 634.041 118.22 675.841 119.731 717.61C120.181 730.074 121.257 742.525 122.997 754.963M695.645 289.781C669.082 262.222 632.093 251.386 583.825 246.118C579.734 245.672 575.65 245.191 571.552 244.882C557.987 243.891 543.937 244.082 531.563 249.227C495.585 264.113 484.169 306.817 471.033 339.559C459.84 367.458 449.79 396.671 437.892 426.613C433.862 436.757 429.769 446.892 425.412 456.939C415.966 478.728 403.366 502.054 381.992 510.752C360.349 519.559 338.009 510.997 317.225 504.921C293.001 497.85 266.858 493.732 240.257 497.561C230.992 498.899 221.662 501.296 212.671 504.76C195.86 511.219 180.178 521.396 168.337 535.307C154.117 552.013 146.264 572.731 140.098 592.807C127.544 633.475 120.982 673.901 121.284 714.553C121.373 726.684 122.072 738.824 123.427 750.987M695.025 287.362C669.484 260.862 633.602 252.278 584.663 247.499C580.611 247.104 576.566 246.647 572.511 246.369C559.062 245.476 545.167 245.697 532.9 250.68C497.188 265.109 485.136 306.226 471.573 338.506C460.145 365.707 449.94 394.445 437.864 424.172C433.8 434.179 429.697 444.19 425.339 454.115C415.892 475.642 403.44 498.663 382.558 507.625C361.415 516.699 339.61 509.078 319.288 503.838C295.602 497.744 270.055 494.478 244.017 498.82C234.948 500.338 225.81 502.869 216.991 506.424C200.506 513.044 185.068 523.214 173.285 536.934C159.14 553.41 151.064 573.684 144.569 593.252C131.332 632.899 123.734 671.951 122.824 711.487C122.551 723.285 122.873 735.113 123.847 746.999M694.405 284.945C669.885 259.507 635.116 253.167 585.501 248.886C581.486 248.54 577.482 248.11 573.47 247.86C560.135 247.066 546.397 247.317 534.239 252.142C498.794 266.11 486.111 305.643 472.118 337.46C460.46 363.964 450.099 392.225 437.842 421.74C433.744 431.612 429.63 441.496 425.273 451.301C415.824 472.564 403.52 495.283 383.132 504.509C362.489 513.85 341.217 507.167 321.36 502.763C298.214 497.646 273.261 495.232 247.788 500.088C238.914 501.785 229.969 504.452 221.322 508.095C205.163 514.876 189.969 525.041 178.245 538.571C164.172 554.814 155.876 574.644 149.05 593.706C135.132 632.334 126.495 670.012 124.374 708.433C123.74 719.898 123.684 731.415 124.274 743.026M693.785 282.526C670.287 258.147 636.635 254.04 586.34 250.269C582.364 249.971 578.401 249.568 574.43 249.348C561.211 248.653 547.63 248.935 535.58 253.598C500.401 267.108 487.094 305.052 472.66 336.41C460.782 362.216 450.255 390.002 437.819 419.301C433.687 429.034 429.563 438.795 425.204 448.481C415.755 469.482 403.598 491.895 383.704 501.388C363.56 510.995 342.823 505.254 323.429 501.686C300.82 497.546 276.463 495.984 251.554 501.353C242.876 503.229 234.124 506.031 225.647 509.763C209.815 516.706 194.862 526.863 183.198 540.204C169.201 556.217 160.682 575.602 153.527 594.158C138.927 631.765 129.253 668.069 125.921 705.373C124.925 716.507 124.491 727.709 124.701 739.048M693.163 280.108C670.687 256.789 638.153 254.904 587.178 251.653C583.241 251.403 579.317 251.028 575.39 250.836C562.284 250.24 548.861 250.552 536.919 255.054C502.006 268.106 488.082 304.463 473.203 335.359C461.111 360.47 450.415 387.78 437.796 416.865C433.631 426.464 429.496 436.098 425.137 445.662C415.686 466.4 403.676 488.511 384.276 498.267C364.632 508.141 344.43 503.341 325.498 500.608C303.427 497.446 279.666 496.736 255.321 502.619C246.839 504.676 238.278 507.613 229.974 511.432C214.466 518.537 199.757 528.689 188.154 541.836C174.229 557.617 165.489 576.559 158.005 594.606C142.724 631.195 132.011 666.124 127.47 702.313C126.113 713.112 125.301 724.003 125.128 735.066M692.545 277.691C671.091 255.432 639.679 255.76 588.016 253.037C584.118 252.832 580.234 252.487 576.347 252.325C563.357 251.827 550.09 252.168 538.255 256.512C503.61 269.105 489.075 303.874 473.742 334.311C461.442 358.727 450.572 385.559 437.767 414.429C433.57 423.891 429.424 433.401 425.064 442.844C415.612 463.32 403.751 485.125 384.843 495.146C365.698 505.286 346.032 501.427 327.562 499.531C306.03 497.345 282.863 497.487 259.081 503.884C250.795 506.119 242.424 509.192 234.293 513.101C219.112 520.366 204.646 530.512 193.102 543.469C179.251 559.021 170.29 577.517 162.476 595.057C146.513 630.625 134.761 664.179 129.009 699.253C127.291 709.72 126.102 720.299 125.545 731.087M691.924 275.273C671.491 254.073 641.203 256.602 588.854 254.421C584.994 254.261 581.15 253.949 577.307 253.813C564.43 253.414 551.32 253.786 539.594 257.968C505.217 270.101 490.08 303.285 474.285 333.26C461.786 356.982 450.734 383.336 437.745 411.991C433.517 421.318 429.358 430.702 424.998 440.024C415.545 460.237 403.832 481.741 385.418 492.022C366.774 502.43 347.641 499.508 329.635 498.452C308.64 497.242 286.07 498.237 262.852 505.146C254.762 507.561 246.584 510.768 238.625 514.768C223.77 522.193 209.546 532.333 198.062 545.1C184.285 560.421 175.101 578.473 166.96 595.505C150.316 630.054 137.524 662.234 130.561 696.191C128.481 706.325 126.916 716.592 125.977 727.103M691.304 272.857C671.892 252.718 642.73 257.433 589.694 255.807C585.874 255.69 582.067 255.402 578.267 255.305C565.507 254.979 552.554 255.406 540.935 259.427C506.823 271.101 491.091 302.7 474.831 332.213C462.14 355.245 450.901 381.119 437.723 409.556C433.465 418.748 429.292 428.004 424.93 437.207C415.475 457.158 403.91 478.357 385.988 488.903C367.844 499.577 349.247 497.596 331.704 497.375C311.247 497.142 289.273 498.988 266.619 506.412C258.726 509.008 250.739 512.35 242.952 516.437C228.423 524.026 214.442 534.159 203.019 546.733C189.315 561.822 179.91 579.43 171.439 595.956C154.113 629.484 140.284 660.29 132.111 693.132C129.67 702.933 127.727 712.888 126.406 723.126M690.684 270.437C672.294 251.359 644.259 258.249 590.532 257.191C586.75 257.116 582.985 256.862 579.226 256.793C566.581 256.564 553.784 257.024 542.272 260.884C508.427 272.1 492.111 302.115 475.371 331.163C462.497 353.504 451.062 378.899 437.698 407.119C433.41 416.173 429.224 425.305 424.861 434.387C415.405 454.074 403.987 474.971 386.559 485.781C368.914 496.721 350.852 495.682 333.772 496.296C313.854 497.04 292.475 499.738 270.384 507.675C262.683 510.451 254.892 513.927 247.274 518.106C233.071 525.854 219.333 535.982 207.968 548.365C194.339 563.223 184.713 580.386 175.912 596.404C157.904 628.914 143.037 658.345 133.651 690.071C130.848 699.54 128.529 709.183 126.824 719.145M690.062 268.02C672.695 250.001 645.787 259.054 591.37 258.575C587.627 258.543 583.901 258.322 580.184 258.283C567.654 258.151 555.014 258.641 543.611 262.342C510.033 273.099 493.138 301.533 475.914 330.115C462.863 351.771 451.231 376.68 437.673 404.684C433.355 413.603 429.155 422.609 424.792 431.57C415.335 450.995 404.065 471.586 387.13 482.661C369.985 493.869 352.457 493.77 335.84 495.22C316.459 496.941 295.675 500.492 274.149 508.943C266.645 511.899 259.045 515.51 251.599 519.777C237.722 527.685 224.226 537.807 212.922 550.001C199.367 564.628 189.518 581.348 180.388 596.86C161.698 628.349 145.793 656.407 135.198 687.017C132.034 696.152 129.337 705.484 127.25 715.17M689.444 265.602C673.098 248.643 647.319 259.845 592.209 259.958C588.506 259.966 584.819 259.779 581.145 259.77C568.73 259.735 556.246 260.258 544.95 263.798C511.64 274.096 494.178 300.952 476.455 329.063C463.235 350.035 451.398 374.46 437.648 402.246C433.3 411.031 429.087 419.911 424.723 428.75C415.265 447.912 404.142 468.2 387.7 479.539C371.055 491.014 354.061 491.853 337.908 494.142C319.066 496.838 298.876 501.241 277.915 510.205C270.607 513.341 263.199 517.086 255.926 521.443C242.374 529.514 229.121 539.63 217.879 551.632C204.397 566.027 194.327 582.303 184.867 597.307C165.496 627.777 148.553 654.46 136.747 683.953C133.219 692.755 130.146 701.774 127.676 711.186M688.822 263.184C673.497 247.286 648.848 260.622 593.046 261.344C589.382 261.391 585.733 261.241 582.102 261.261C569.802 261.326 557.482 261.9 546.288 265.257C513.264 275.164 495.224 300.38 476.997 328.018C463.615 348.31 451.568 372.246 437.624 399.811C433.248 408.461 429.018 417.215 424.654 425.933C415.195 444.833 404.22 464.816 388.271 476.42C372.124 488.162 355.667 489.942 339.977 493.064C321.673 496.738 302.079 501.993 281.682 511.471C274.569 514.786 267.354 518.668 260.252 523.113C247.028 531.345 234.017 541.454 222.833 553.265C209.424 567.431 199.132 583.262 189.344 597.758C169.291 627.207 151.31 652.517 138.292 680.895C134.404 689.364 130.953 698.072 128.101 707.21M688.204 260.767C673.901 245.928 650.379 261.387 593.887 262.728C590.261 262.815 586.653 262.703 583.065 262.749C570.879 262.912 558.716 263.517 547.632 266.714C514.873 276.16 496.282 299.809 477.545 326.967C464.011 346.584 451.746 370.029 437.606 397.375C433.203 405.891 428.957 414.518 424.591 423.116C415.13 441.752 404.303 461.433 388.849 473.301C373.203 485.312 357.281 488.03 342.052 491.99C324.286 496.641 305.288 502.747 285.453 512.739C278.537 516.234 271.513 520.251 264.583 524.784C251.685 533.177 238.917 543.281 227.793 554.901C214.457 568.835 203.946 584.224 193.827 598.212C173.093 626.642 154.072 650.579 139.845 677.839C135.595 685.975 131.769 694.369 128.533 703.232M687.582 258.349C674.3 244.569 651.908 262.136 594.723 264.114C591.138 264.239 587.568 264.163 584.022 264.241C571.951 264.503 559.944 265.137 548.966 268.174C516.474 277.162 497.345 299.249 478.083 325.92C464.402 344.865 451.914 367.816 437.577 394.939C433.148 403.321 428.883 411.819 424.518 420.297C415.057 438.672 404.379 458.049 389.416 470.181C374.269 482.457 358.882 486.116 344.115 490.913C326.887 496.539 308.484 503.497 289.213 514.004C282.493 517.679 275.662 521.83 268.903 526.453C256.329 535.007 243.804 545.104 232.74 556.533C219.478 570.236 208.745 585.18 198.297 598.661C176.881 626.07 156.821 648.632 141.386 674.778C136.774 682.581 132.57 690.664 128.951 699.252M686.962 255.93C674.702 243.209 653.434 262.869 595.561 265.495C592.014 265.656 588.485 265.621 584.982 265.726C573.026 266.086 561.176 266.75 550.307 269.628C518.08 278.156 498.421 298.688 478.627 324.868C464.806 343.148 452.094 365.601 437.555 392.501C433.099 400.749 428.817 409.121 424.451 417.476C414.988 435.587 404.457 454.662 389.988 467.057C375.34 479.6 360.487 484.199 346.184 489.832C329.494 496.436 311.687 504.245 292.982 515.266C286.457 519.119 279.818 523.408 273.232 528.119C260.984 536.834 248.702 546.925 237.699 558.164C224.512 571.636 213.556 586.136 202.779 599.108C180.682 625.499 159.583 646.686 142.935 671.716C137.963 679.185 133.382 686.957 129.379 695.269M686.342 253.513C675.103 241.854 654.961 263.587 596.401 266.881C592.893 267.079 589.402 267.083 585.942 267.217C574.1 267.677 562.406 268.371 551.646 271.086C519.684 279.155 499.508 298.14 479.168 323.819C465.214 341.437 452.271 363.388 437.529 390.065C433.046 398.179 428.749 406.422 424.38 414.658C414.917 432.507 404.532 451.277 390.558 463.935C376.412 476.745 362.093 482.284 348.252 488.754C332.099 496.335 314.887 504.996 296.746 516.529C290.417 520.563 283.971 524.986 277.556 529.786C265.636 538.663 253.596 548.748 242.65 559.794C229.537 573.035 218.36 587.091 207.254 599.557C184.475 624.927 162.338 644.74 144.48 668.654C139.145 675.791 134.187 683.25 129.803 691.286M685.721 251.095C675.504 240.496 656.484 264.29 597.237 268.266C593.768 268.498 590.317 268.543 586.9 268.707C575.173 269.267 563.632 269.967 552.984 272.546C521.273 280.091 500.602 297.603 479.71 322.773C465.629 339.736 452.45 361.177 437.506 387.632C432.997 395.612 428.682 403.727 424.313 411.842C414.847 429.427 404.612 447.894 391.13 460.816C377.483 473.893 363.699 480.373 350.322 487.678C334.709 496.235 318.091 505.749 300.514 517.797C294.382 522.01 288.126 526.569 281.884 531.457C270.288 540.495 258.492 550.573 247.607 561.43C234.566 574.441 223.168 588.052 211.732 600.011C188.271 624.362 165.096 642.801 146.028 665.598C140.333 672.402 134.996 679.548 130.23 687.312M685.102 248.678C675.907 239.138 658.006 264.977 598.078 269.65C594.647 269.919 591.237 270.005 587.861 270.197C576.249 270.856 564.864 271.586 554.324 274.003C522.88 281.088 501.709 297.073 480.256 321.723C466.055 338.038 452.637 358.966 437.484 385.194C432.95 393.042 428.616 401.029 424.246 409.023C414.78 426.347 404.69 444.51 391.703 457.696C378.555 471.039 365.306 478.46 352.392 486.6C337.316 496.135 321.294 506.5 304.28 519.061C298.341 523.455 292.28 528.146 286.209 533.126C274.939 542.324 263.385 552.397 252.562 563.062C239.596 575.843 227.976 589.008 216.21 600.46C192.067 623.79 167.855 640.856 147.574 662.538C141.517 669.01 135.803 675.843 130.655 683.33M684.481 246.26C676.308 237.78 659.521 265.646 598.915 271.033C595.523 271.335 592.151 271.463 588.819 271.684C577.322 272.443 566.095 273.201 555.662 275.46C524.485 282.086 502.823 296.556 480.796 320.673C466.479 336.347 452.818 356.755 437.458 382.758C432.899 390.473 428.545 398.33 424.176 406.205C414.708 423.265 404.767 441.124 392.272 454.575C379.625 468.186 366.91 476.544 354.458 485.523C339.92 496.035 324.494 507.251 308.046 520.326C302.303 524.9 296.433 529.727 290.535 534.795C279.591 544.155 268.281 554.222 257.516 564.696C244.623 577.244 232.782 589.966 220.687 600.91C195.863 623.222 170.612 638.912 149.121 659.478C142.703 665.617 136.612 672.139 131.08 679.351M683.861 243.841C676.71 236.42 661.036 266.296 599.753 272.417C596.398 272.752 593.067 272.93 589.778 273.174C578.397 274.054 567.324 274.82 557.001 276.918C526.09 283.087 503.949 296.052 481.339 319.626C466.912 334.665 453.006 354.55 437.434 380.322C432.853 387.905 428.478 395.633 424.108 403.387C414.64 420.185 404.846 437.74 392.844 451.454C380.696 465.331 368.517 474.631 356.527 484.446C342.527 495.932 327.697 508.003 311.811 521.591C306.265 526.345 300.586 531.307 294.861 536.464C284.243 545.985 273.175 556.044 262.47 566.329C249.652 578.647 237.588 590.925 225.164 601.362C199.658 622.653 173.37 636.97 150.668 656.419C143.888 662.225 137.42 668.435 131.505 675.372M683.241 241.424C677.11 235.065 662.545 266.932 600.592 273.803C597.276 274.171 593.987 274.392 590.738 274.662C579.473 275.641 568.557 276.437 558.34 278.373C527.696 284.083 505.084 295.561 481.88 318.574C467.347 332.988 453.192 352.342 437.41 377.884C432.804 385.336 428.409 392.934 424.038 400.565C414.568 417.1 404.924 434.352 393.413 448.33C381.765 462.474 370.121 472.714 358.594 483.366C345.131 495.83 330.897 508.751 315.574 522.853C310.223 527.786 304.738 532.883 299.183 538.129C288.892 547.811 278.066 557.866 267.42 567.958C254.676 580.045 242.39 591.878 229.637 601.808C203.45 622.079 176.122 635.022 152.21 653.357C145.068 658.83 138.223 664.728 131.927 671.39M682.621 239.005C677.512 233.705 664.049 267.549 601.432 275.186C598.153 275.586 594.904 275.851 591.697 276.15C580.546 277.228 569.787 278.055 559.679 279.831C529.303 285.082 506.226 295.088 482.423 317.526C467.787 331.324 453.383 350.14 437.386 375.447C432.758 382.77 428.342 390.237 423.969 397.748C414.498 414.021 405.001 430.969 393.985 445.212C382.836 459.622 371.728 470.804 360.664 482.29C347.741 495.73 334.101 509.503 319.342 524.12C314.187 529.233 308.893 534.466 303.511 539.8C293.544 549.644 282.963 559.691 272.378 569.593C259.707 581.448 247.199 592.838 234.117 602.259C207.248 621.51 178.882 633.078 153.759 650.297C146.257 655.437 139.034 661.023 132.355 667.411M682.001 236.589C677.915 232.349 665.549 268.147 602.27 276.573C599.03 277.004 595.819 277.314 592.657 277.641C581.622 278.818 571.019 279.674 561.018 281.29C530.908 286.08 507.377 294.631 482.967 316.478C468.23 329.666 453.578 347.937 437.364 373.013C432.715 380.204 428.277 387.541 423.903 394.931C414.431 410.94 405.082 427.585 394.559 442.093C383.911 456.771 373.335 468.891 362.735 481.214C350.349 495.631 337.304 510.258 323.109 525.387C318.151 530.68 313.049 536.047 307.836 541.471C298.195 551.475 287.857 561.517 277.331 571.227C264.733 582.853 252.004 593.798 238.594 602.712C211.044 620.944 181.639 631.137 155.305 647.239C147.441 652.047 139.842 657.321 132.779 663.433M681.381 234.17C678.317 230.989 667.04 268.726 603.108 277.954C599.904 278.417 596.737 278.771 593.615 279.128C582.694 280.403 572.248 281.29 562.357 282.745C532.513 287.078 508.535 294.19 483.509 315.426C468.674 328.015 453.772 345.734 437.338 370.574C432.667 377.635 428.207 384.839 423.833 392.11C414.36 407.857 405.157 424.198 395.13 438.968C384.981 453.912 374.94 466.973 364.802 480.132C352.955 495.527 340.506 511.005 326.877 526.647C322.113 532.119 317.204 537.623 312.164 543.137C302.851 553.302 292.753 563.339 282.288 572.858C269.763 584.252 256.814 594.752 243.072 603.161C214.841 620.374 184.397 629.192 156.852 644.18C148.627 648.654 140.649 653.615 133.205 659.452M680.76 231.752C678.716 229.633 668.525 269.287 603.946 279.338C600.779 279.83 597.653 280.231 594.575 280.617C583.77 281.99 573.481 282.908 563.695 284.202C534.118 288.076 509.698 293.768 484.05 314.377C469.119 326.375 453.968 343.538 437.315 368.137C432.623 375.069 428.14 382.141 423.766 389.291C414.291 404.775 405.237 420.812 395.702 435.847C386.052 451.057 376.547 465.06 366.872 479.055C355.563 495.426 343.709 511.756 330.642 527.912C326.075 533.564 321.358 539.202 316.489 544.805C307.501 555.132 297.647 565.161 287.243 574.49C274.793 585.653 261.62 595.71 247.55 603.61C218.636 619.802 187.155 627.247 158.4 641.117C149.812 645.26 141.457 649.908 133.631 655.472M680.14 229.336C679.118 228.276 670.005 269.828 604.784 280.725C601.653 281.248 598.571 281.694 595.533 282.109C584.843 283.58 574.71 284.53 565.034 285.663C535.724 289.078 510.867 293.371 484.592 313.331C469.562 324.749 454.196 341.366 437.289 365.704C432.584 372.513 428.07 379.447 423.695 386.476C414.22 401.698 405.313 417.43 396.271 432.728C387.122 448.207 378.152 463.148 368.938 477.98C358.167 495.329 346.909 512.51 334.406 529.181C330.035 535.013 325.51 540.786 320.813 546.477C312.15 556.965 302.539 566.988 292.194 576.126C279.818 587.058 266.425 596.671 252.025 604.064C222.43 619.238 189.91 625.307 159.945 638.062C150.997 641.871 142.264 646.208 134.056 651.495M679.52 226.917C679.52 226.917 671.477 270.348 605.623 282.108C539.769 293.868 497.649 278.124 437.267 363.266C395.542 422.103 369.636 491.301 325.141 548.143C306.834 571.529 283.549 591.869 256.504 604.512C226.227 618.665 192.67 623.361 161.492 635C152.182 638.477 143.074 642.5 134.481 647.513" stroke="white" stroke-width="0.197078" stroke-miterlimit="10"/>
</svg>
